<mxfile host="app.diagrams.net" modified="2023-08-29T03:38:26.673Z" agent="Mozilla/5.0 (Windows NT 10.0; Win64; x64) AppleWebKit/537.36 (KHTML, like Gecko) Chrome/116.0.0.0 Safari/537.36" etag="665821wQBQqC87e8jywU" version="21.6.9" type="github" pages="2">
  <diagram id="C5RBs43oDa-KdzZeNtuy" name="Page-1">
    <mxGraphModel dx="1221" dy="622" grid="1" gridSize="10" guides="1" tooltips="1" connect="1" arrows="1" fold="1" page="1" pageScale="1" pageWidth="827" pageHeight="1169" math="0" shadow="0">
      <root>
        <mxCell id="WIyWlLk6GJQsqaUBKTNV-0" />
        <mxCell id="WIyWlLk6GJQsqaUBKTNV-1" parent="WIyWlLk6GJQsqaUBKTNV-0" />
        <mxCell id="WoGnkU7w-7urDZS7QDXh-1" value="" style="edgeStyle=orthogonalEdgeStyle;rounded=1;orthogonalLoop=1;jettySize=auto;html=1;" parent="WIyWlLk6GJQsqaUBKTNV-1" source="WIyWlLk6GJQsqaUBKTNV-3" target="WoGnkU7w-7urDZS7QDXh-0" edge="1">
          <mxGeometry relative="1" as="geometry" />
        </mxCell>
        <mxCell id="WIyWlLk6GJQsqaUBKTNV-3" value="&lt;div&gt;&lt;div style=&quot;background-color: rgb(255, 255, 255); font-family: Consolas, &amp;quot;Courier New&amp;quot;, monospace; font-size: 14px; line-height: 19px;&quot;&gt;ar_game_archery_handle(&lt;span style=&quot;color: #267f99;&quot;&gt;ak_msg_t&lt;/span&gt;&lt;span style=&quot;color: #0000ff;&quot;&gt;*&lt;/span&gt; &lt;span style=&quot;color: #001080;&quot;&gt;msg&lt;/span&gt;)&lt;/div&gt;&lt;/div&gt;" style="rounded=1;whiteSpace=wrap;html=1;fontSize=12;glass=0;strokeWidth=1;shadow=0;" parent="WIyWlLk6GJQsqaUBKTNV-1" vertex="1">
          <mxGeometry x="249" y="305" width="310" height="70" as="geometry" />
        </mxCell>
        <mxCell id="WoGnkU7w-7urDZS7QDXh-0" value="" style="rounded=1;whiteSpace=wrap;html=1;fontSize=12;glass=0;strokeWidth=1;shadow=0;" parent="WIyWlLk6GJQsqaUBKTNV-1" vertex="1">
          <mxGeometry x="190" y="400" width="428" height="700" as="geometry" />
        </mxCell>
        <mxCell id="8Bc5X0JGQG7bx1Ke6ycb-5" value="" style="edgeStyle=orthogonalEdgeStyle;rounded=1;orthogonalLoop=1;jettySize=auto;html=1;exitX=0;exitY=0.225;exitDx=0;exitDy=0;exitPerimeter=0;entryX=-0.002;entryY=0.118;entryDx=0;entryDy=0;entryPerimeter=0;" parent="WIyWlLk6GJQsqaUBKTNV-1" source="WoGnkU7w-7urDZS7QDXh-2" target="WoGnkU7w-7urDZS7QDXh-7" edge="1">
          <mxGeometry relative="1" as="geometry">
            <mxPoint x="248" y="655" as="targetPoint" />
            <Array as="points">
              <mxPoint x="228" y="505" />
              <mxPoint x="228" y="610" />
              <mxPoint x="257" y="610" />
            </Array>
          </mxGeometry>
        </mxCell>
        <mxCell id="WoGnkU7w-7urDZS7QDXh-2" value="&lt;div style=&quot;background-color: rgb(255, 255, 255); font-family: Consolas, &amp;quot;Courier New&amp;quot;, monospace; font-size: 14px; line-height: 19px;&quot;&gt;&lt;div style=&quot;line-height: 19px;&quot;&gt;AR_GAME_ARCHERY_SETUP&lt;/div&gt;&lt;/div&gt;" style="swimlane;fontStyle=0;childLayout=stackLayout;horizontal=1;startSize=30;horizontalStack=0;resizeParent=1;resizeParentMax=0;resizeLast=0;collapsible=1;marginBottom=0;whiteSpace=wrap;html=1;rounded=1;" parent="WIyWlLk6GJQsqaUBKTNV-1" vertex="1">
          <mxGeometry x="258" y="485" width="310" height="90" as="geometry" />
        </mxCell>
        <mxCell id="WoGnkU7w-7urDZS7QDXh-3" value="&lt;div style=&quot;background-color: rgb(255, 255, 255); font-family: Consolas, &amp;quot;Courier New&amp;quot;, monospace; font-size: 14px; line-height: 19px;&quot;&gt;&lt;div style=&quot;line-height: 19px;&quot;&gt;&lt;div style=&quot;line-height: 19px;&quot;&gt;APP_DBG_SIG(&lt;span style=&quot;color: #a31515;&quot;&gt;&quot;AR_GAME_ARCHERY_SETUP&lt;/span&gt;&lt;span style=&quot;color: #ee0000;&quot;&gt;\n&lt;/span&gt;&lt;span style=&quot;color: #a31515;&quot;&gt;&quot;&lt;/span&gt;);&lt;/div&gt;&lt;/div&gt;&lt;/div&gt;" style="text;strokeColor=none;fillColor=none;align=left;verticalAlign=middle;spacingLeft=4;spacingRight=4;overflow=hidden;points=[[0,0.5],[1,0.5]];portConstraint=eastwest;rotatable=0;whiteSpace=wrap;html=1;rounded=1;" parent="WoGnkU7w-7urDZS7QDXh-2" vertex="1">
          <mxGeometry y="30" width="310" height="30" as="geometry" />
        </mxCell>
        <mxCell id="WoGnkU7w-7urDZS7QDXh-4" value="&lt;div style=&quot;background-color: rgb(255, 255, 255); font-family: Consolas, &amp;quot;Courier New&amp;quot;, monospace; font-size: 14px; line-height: 19px;&quot;&gt;&lt;div style=&quot;line-height: 19px;&quot;&gt;&lt;div style=&quot;line-height: 19px;&quot;&gt;AR_GAME_ARCHERY_SETUP();&lt;/div&gt;&lt;/div&gt;&lt;/div&gt;" style="text;strokeColor=none;fillColor=none;align=left;verticalAlign=middle;spacingLeft=4;spacingRight=4;overflow=hidden;points=[[0,0.5],[1,0.5]];portConstraint=eastwest;rotatable=0;whiteSpace=wrap;html=1;rounded=1;" parent="WoGnkU7w-7urDZS7QDXh-2" vertex="1">
          <mxGeometry y="60" width="310" height="30" as="geometry" />
        </mxCell>
        <mxCell id="WoGnkU7w-7urDZS7QDXh-7" value="&lt;div style=&quot;background-color: rgb(255, 255, 255); font-family: Consolas, &amp;quot;Courier New&amp;quot;, monospace; font-size: 14px; line-height: 19px;&quot;&gt;&lt;div style=&quot;line-height: 19px;&quot;&gt;&lt;div style=&quot;line-height: 19px;&quot;&gt;AR_GAME_ARCHERY_UPDATE&lt;/div&gt;&lt;/div&gt;&lt;/div&gt;" style="swimlane;fontStyle=0;childLayout=stackLayout;horizontal=1;startSize=30;horizontalStack=0;resizeParent=1;resizeParentMax=0;resizeLast=0;collapsible=1;marginBottom=0;whiteSpace=wrap;html=1;rounded=1;" parent="WIyWlLk6GJQsqaUBKTNV-1" vertex="1">
          <mxGeometry x="258" y="600" width="310" height="90" as="geometry" />
        </mxCell>
        <mxCell id="mS9mN7FK9Wahz5sAWF41-0" value="&lt;div style=&quot;background-color: rgb(255, 255, 255); font-family: Consolas, &amp;quot;Courier New&amp;quot;, monospace; font-size: 14px; line-height: 19px;&quot;&gt;&lt;div style=&quot;line-height: 19px;&quot;&gt;&lt;div style=&quot;line-height: 19px;&quot;&gt;&lt;div style=&quot;line-height: 19px;&quot;&gt;APP_DBG_SIG(&lt;span style=&quot;color: #a31515;&quot;&gt;&quot;AR_GAME_ARCHERY_UPDATE&lt;/span&gt;&lt;span style=&quot;color: #ee0000;&quot;&gt;\n&lt;/span&gt;&lt;span style=&quot;color: #a31515;&quot;&gt;&quot;&lt;/span&gt;);&lt;/div&gt;&lt;/div&gt;&lt;/div&gt;&lt;/div&gt;" style="text;strokeColor=none;fillColor=none;align=left;verticalAlign=middle;spacingLeft=4;spacingRight=4;overflow=hidden;points=[[0,0.5],[1,0.5]];portConstraint=eastwest;rotatable=0;whiteSpace=wrap;html=1;rounded=1;" parent="WoGnkU7w-7urDZS7QDXh-7" vertex="1">
          <mxGeometry y="30" width="310" height="30" as="geometry" />
        </mxCell>
        <mxCell id="WoGnkU7w-7urDZS7QDXh-8" value="&lt;div style=&quot;background-color: rgb(255, 255, 255); font-family: Consolas, &amp;quot;Courier New&amp;quot;, monospace; font-size: 14px; line-height: 19px;&quot;&gt;&lt;div style=&quot;line-height: 19px;&quot;&gt;&lt;div style=&quot;line-height: 19px;&quot;&gt;&lt;div style=&quot;line-height: 19px;&quot;&gt;&lt;div style=&quot;line-height: 19px;&quot;&gt;archery.&lt;span style=&quot;color: #001080;&quot;&gt;y&lt;/span&gt; = &lt;span style=&quot;color: #001080;&quot;&gt;archery_y&lt;/span&gt;;&lt;/div&gt;&lt;/div&gt;&lt;/div&gt;&lt;/div&gt;&lt;/div&gt;" style="text;strokeColor=none;fillColor=none;align=left;verticalAlign=middle;spacingLeft=4;spacingRight=4;overflow=hidden;points=[[0,0.5],[1,0.5]];portConstraint=eastwest;rotatable=0;whiteSpace=wrap;html=1;rounded=1;" parent="WoGnkU7w-7urDZS7QDXh-7" vertex="1">
          <mxGeometry y="60" width="310" height="30" as="geometry" />
        </mxCell>
        <mxCell id="WoGnkU7w-7urDZS7QDXh-12" value="&lt;div style=&quot;background-color: rgb(255, 255, 255); font-family: Consolas, &amp;quot;Courier New&amp;quot;, monospace; font-size: 14px; line-height: 19px;&quot;&gt;&lt;div style=&quot;line-height: 19px;&quot;&gt;&lt;div style=&quot;line-height: 19px;&quot;&gt;AR_GAME_ARCHERY_UP&lt;/div&gt;&lt;/div&gt;&lt;/div&gt;" style="swimlane;fontStyle=0;childLayout=stackLayout;horizontal=1;startSize=30;horizontalStack=0;resizeParent=1;resizeParentMax=0;resizeLast=0;collapsible=1;marginBottom=0;whiteSpace=wrap;html=1;rounded=1;" parent="WIyWlLk6GJQsqaUBKTNV-1" vertex="1">
          <mxGeometry x="258" y="710" width="310" height="90" as="geometry" />
        </mxCell>
        <mxCell id="WoGnkU7w-7urDZS7QDXh-13" value="&lt;div style=&quot;background-color: rgb(255, 255, 255); font-family: Consolas, &amp;quot;Courier New&amp;quot;, monospace; font-size: 14px; line-height: 19px;&quot;&gt;&lt;div style=&quot;line-height: 19px;&quot;&gt;&lt;div style=&quot;line-height: 19px;&quot;&gt;&lt;div style=&quot;line-height: 19px;&quot;&gt;APP_DBG_SIG(&lt;span style=&quot;color: #a31515;&quot;&gt;&quot;AR_GAME_ARCHERY_UP&lt;/span&gt;&lt;span style=&quot;color: #ee0000;&quot;&gt;\n&lt;/span&gt;&lt;span style=&quot;color: #a31515;&quot;&gt;&quot;&lt;/span&gt;);&lt;/div&gt;&lt;/div&gt;&lt;/div&gt;&lt;/div&gt;" style="text;strokeColor=none;fillColor=none;align=left;verticalAlign=middle;spacingLeft=4;spacingRight=4;overflow=hidden;points=[[0,0.5],[1,0.5]];portConstraint=eastwest;rotatable=0;whiteSpace=wrap;html=1;rounded=1;" parent="WoGnkU7w-7urDZS7QDXh-12" vertex="1">
          <mxGeometry y="30" width="310" height="30" as="geometry" />
        </mxCell>
        <mxCell id="WoGnkU7w-7urDZS7QDXh-14" value="&lt;div style=&quot;background-color: rgb(255, 255, 255); font-family: Consolas, &amp;quot;Courier New&amp;quot;, monospace; font-size: 14px; line-height: 19px;&quot;&gt;&lt;div style=&quot;line-height: 19px;&quot;&gt;&lt;div style=&quot;line-height: 19px;&quot;&gt;AR_GAME_ARCHERY_UP();&lt;/div&gt;&lt;/div&gt;&lt;/div&gt;" style="text;strokeColor=none;fillColor=none;align=left;verticalAlign=middle;spacingLeft=4;spacingRight=4;overflow=hidden;points=[[0,0.5],[1,0.5]];portConstraint=eastwest;rotatable=0;whiteSpace=wrap;html=1;rounded=1;" parent="WoGnkU7w-7urDZS7QDXh-12" vertex="1">
          <mxGeometry y="60" width="310" height="30" as="geometry" />
        </mxCell>
        <mxCell id="WoGnkU7w-7urDZS7QDXh-17" value="&lt;div style=&quot;background-color: rgb(255, 255, 255); font-family: Consolas, &amp;quot;Courier New&amp;quot;, monospace; font-size: 14px; line-height: 19px;&quot;&gt;&lt;div style=&quot;line-height: 19px;&quot;&gt;&lt;div style=&quot;line-height: 19px;&quot;&gt;AR_GAME_ARCHERY_DOWN&lt;/div&gt;&lt;/div&gt;&lt;/div&gt;" style="swimlane;fontStyle=0;childLayout=stackLayout;horizontal=1;startSize=30;horizontalStack=0;resizeParent=1;resizeParentMax=0;resizeLast=0;collapsible=1;marginBottom=0;whiteSpace=wrap;html=1;rounded=1;" parent="WIyWlLk6GJQsqaUBKTNV-1" vertex="1">
          <mxGeometry x="256.62" y="820" width="310" height="90" as="geometry" />
        </mxCell>
        <mxCell id="WoGnkU7w-7urDZS7QDXh-18" value="&lt;div style=&quot;background-color: rgb(255, 255, 255); font-family: Consolas, &amp;quot;Courier New&amp;quot;, monospace; font-size: 14px; line-height: 19px;&quot;&gt;&lt;div style=&quot;line-height: 19px;&quot;&gt;&lt;div style=&quot;line-height: 19px;&quot;&gt;APP_DBG_SIG(&lt;span style=&quot;color: #a31515;&quot;&gt;&quot;AR_GAME_ARCHERY_DOWN&lt;/span&gt;&lt;span style=&quot;color: #ee0000;&quot;&gt;\n&lt;/span&gt;&lt;span style=&quot;color: #a31515;&quot;&gt;&quot;&lt;/span&gt;);&lt;/div&gt;&lt;/div&gt;&lt;/div&gt;" style="text;strokeColor=none;fillColor=none;align=left;verticalAlign=middle;spacingLeft=4;spacingRight=4;overflow=hidden;points=[[0,0.5],[1,0.5]];portConstraint=eastwest;rotatable=0;whiteSpace=wrap;html=1;rounded=1;" parent="WoGnkU7w-7urDZS7QDXh-17" vertex="1">
          <mxGeometry y="30" width="310" height="30" as="geometry" />
        </mxCell>
        <mxCell id="WoGnkU7w-7urDZS7QDXh-19" value="&lt;div style=&quot;background-color: rgb(255, 255, 255); font-family: Consolas, &amp;quot;Courier New&amp;quot;, monospace; font-size: 14px; line-height: 19px;&quot;&gt;&lt;div style=&quot;line-height: 19px;&quot;&gt;&lt;div style=&quot;line-height: 19px;&quot;&gt;AR_GAME_ARCHERY_DOWN();&lt;/div&gt;&lt;/div&gt;&lt;/div&gt;" style="text;strokeColor=none;fillColor=none;align=left;verticalAlign=middle;spacingLeft=4;spacingRight=4;overflow=hidden;points=[[0,0.5],[1,0.5]];portConstraint=eastwest;rotatable=0;whiteSpace=wrap;html=1;rounded=1;" parent="WoGnkU7w-7urDZS7QDXh-17" vertex="1">
          <mxGeometry y="60" width="310" height="30" as="geometry" />
        </mxCell>
        <mxCell id="WoGnkU7w-7urDZS7QDXh-22" value="&lt;div style=&quot;background-color: rgb(255, 255, 255); font-family: Consolas, &amp;quot;Courier New&amp;quot;, monospace; font-size: 14px; line-height: 19px;&quot;&gt;&lt;div style=&quot;line-height: 19px;&quot;&gt;&lt;div style=&quot;line-height: 19px;&quot;&gt;&lt;div style=&quot;line-height: 19px;&quot;&gt;AR_GAME_ARCHERY_RESET&lt;/div&gt;&lt;/div&gt;&lt;/div&gt;&lt;/div&gt;" style="swimlane;fontStyle=0;childLayout=stackLayout;horizontal=1;startSize=30;horizontalStack=0;resizeParent=1;resizeParentMax=0;resizeLast=0;collapsible=1;marginBottom=0;whiteSpace=wrap;html=1;rounded=1;" parent="WIyWlLk6GJQsqaUBKTNV-1" vertex="1">
          <mxGeometry x="256.62" y="930" width="310" height="90" as="geometry" />
        </mxCell>
        <mxCell id="WoGnkU7w-7urDZS7QDXh-23" value="&lt;div style=&quot;background-color: rgb(255, 255, 255); font-family: Consolas, &amp;quot;Courier New&amp;quot;, monospace; font-size: 14px; line-height: 19px;&quot;&gt;&lt;div style=&quot;line-height: 19px;&quot;&gt;&lt;div style=&quot;line-height: 19px;&quot;&gt;APP_DBG_SIG(&lt;span style=&quot;color: #a31515;&quot;&gt;&quot;AR_GAME_ARCHERY_RESET&lt;/span&gt;&lt;span style=&quot;color: #ee0000;&quot;&gt;\n&lt;/span&gt;&lt;span style=&quot;color: #a31515;&quot;&gt;&quot;&lt;/span&gt;);&lt;/div&gt;&lt;/div&gt;&lt;/div&gt;" style="text;strokeColor=none;fillColor=none;align=left;verticalAlign=middle;spacingLeft=4;spacingRight=4;overflow=hidden;points=[[0,0.5],[1,0.5]];portConstraint=eastwest;rotatable=0;whiteSpace=wrap;html=1;rounded=1;" parent="WoGnkU7w-7urDZS7QDXh-22" vertex="1">
          <mxGeometry y="30" width="310" height="30" as="geometry" />
        </mxCell>
        <mxCell id="WoGnkU7w-7urDZS7QDXh-24" value="&lt;div style=&quot;background-color: rgb(255, 255, 255); font-family: Consolas, &amp;quot;Courier New&amp;quot;, monospace; font-size: 14px; line-height: 19px;&quot;&gt;&lt;div style=&quot;line-height: 19px;&quot;&gt;&lt;div style=&quot;line-height: 19px;&quot;&gt;AR_GAME_ARCHERY_RESET();&lt;/div&gt;&lt;/div&gt;&lt;/div&gt;" style="text;strokeColor=none;fillColor=none;align=left;verticalAlign=middle;spacingLeft=4;spacingRight=4;overflow=hidden;points=[[0,0.5],[1,0.5]];portConstraint=eastwest;rotatable=0;whiteSpace=wrap;html=1;rounded=1;" parent="WoGnkU7w-7urDZS7QDXh-22" vertex="1">
          <mxGeometry y="60" width="310" height="30" as="geometry" />
        </mxCell>
        <mxCell id="WoGnkU7w-7urDZS7QDXh-28" value="" style="edgeStyle=orthogonalEdgeStyle;rounded=1;orthogonalLoop=1;jettySize=auto;html=1;exitX=0.501;exitY=0.972;exitDx=0;exitDy=0;exitPerimeter=0;" parent="WIyWlLk6GJQsqaUBKTNV-1" edge="1">
          <mxGeometry relative="1" as="geometry">
            <mxPoint x="404.14025000000004" y="286.91999999999996" as="sourcePoint" />
            <mxPoint x="403.82224719101123" y="305" as="targetPoint" />
            <Array as="points">
              <mxPoint x="403.82000000000005" y="300" />
              <mxPoint x="403.82000000000005" y="300" />
            </Array>
          </mxGeometry>
        </mxCell>
        <mxCell id="8Bc5X0JGQG7bx1Ke6ycb-31" value="&lt;font style=&quot;font-size: 13px;&quot;&gt;Yes&lt;/font&gt;" style="edgeLabel;html=1;align=center;verticalAlign=middle;resizable=0;points=[];rounded=1;" parent="WoGnkU7w-7urDZS7QDXh-28" vertex="1" connectable="0">
          <mxGeometry x="-0.0719" y="1" relative="1" as="geometry">
            <mxPoint x="23" y="-5" as="offset" />
          </mxGeometry>
        </mxCell>
        <mxCell id="8Bc5X0JGQG7bx1Ke6ycb-2" value="" style="edgeStyle=orthogonalEdgeStyle;rounded=1;orthogonalLoop=1;jettySize=auto;html=1;endArrow=halfCircle;endFill=0;" parent="WIyWlLk6GJQsqaUBKTNV-1" source="8Bc5X0JGQG7bx1Ke6ycb-0" target="8Bc5X0JGQG7bx1Ke6ycb-1" edge="1">
          <mxGeometry relative="1" as="geometry" />
        </mxCell>
        <mxCell id="8Bc5X0JGQG7bx1Ke6ycb-3" value="" style="edgeStyle=orthogonalEdgeStyle;rounded=1;orthogonalLoop=1;jettySize=auto;html=1;" parent="WIyWlLk6GJQsqaUBKTNV-1" source="8Bc5X0JGQG7bx1Ke6ycb-0" edge="1">
          <mxGeometry relative="1" as="geometry">
            <mxPoint x="258" y="495" as="targetPoint" />
            <Array as="points">
              <mxPoint x="228" y="495" />
            </Array>
          </mxGeometry>
        </mxCell>
        <mxCell id="8Bc5X0JGQG7bx1Ke6ycb-0" value="" style="ellipse;whiteSpace=wrap;html=1;rounded=1;" parent="WIyWlLk6GJQsqaUBKTNV-1" vertex="1">
          <mxGeometry x="218" y="425" width="20" height="20" as="geometry" />
        </mxCell>
        <mxCell id="8Bc5X0JGQG7bx1Ke6ycb-1" value="&lt;div style=&quot;background-color: rgb(255, 255, 255); font-family: Consolas, &amp;quot;Courier New&amp;quot;, monospace; font-size: 14px; line-height: 19px;&quot;&gt;switch (&lt;span style=&quot;color: #001080;&quot;&gt;msg&lt;/span&gt;-&amp;gt;&lt;font color=&quot;#001080&quot;&gt;signal&lt;/font&gt;)&lt;/div&gt;" style="whiteSpace=wrap;html=1;rounded=1;" parent="WIyWlLk6GJQsqaUBKTNV-1" vertex="1">
          <mxGeometry x="258" y="420" width="170" height="30" as="geometry" />
        </mxCell>
        <mxCell id="8Bc5X0JGQG7bx1Ke6ycb-6" value="" style="edgeStyle=orthogonalEdgeStyle;rounded=1;orthogonalLoop=1;jettySize=auto;html=1;entryX=0;entryY=0.116;entryDx=0;entryDy=0;entryPerimeter=0;" parent="WIyWlLk6GJQsqaUBKTNV-1" target="WoGnkU7w-7urDZS7QDXh-12" edge="1">
          <mxGeometry relative="1" as="geometry">
            <mxPoint x="258" y="620" as="sourcePoint" />
            <mxPoint x="238" y="725" as="targetPoint" />
            <Array as="points">
              <mxPoint x="228" y="620" />
              <mxPoint x="228" y="720" />
              <mxPoint x="258" y="720" />
            </Array>
          </mxGeometry>
        </mxCell>
        <mxCell id="8Bc5X0JGQG7bx1Ke6ycb-7" value="" style="edgeStyle=orthogonalEdgeStyle;rounded=1;orthogonalLoop=1;jettySize=auto;html=1;entryX=0;entryY=0.111;entryDx=0;entryDy=0;entryPerimeter=0;exitX=0;exitY=0.222;exitDx=0;exitDy=0;exitPerimeter=0;" parent="WIyWlLk6GJQsqaUBKTNV-1" source="WoGnkU7w-7urDZS7QDXh-12" target="WoGnkU7w-7urDZS7QDXh-17" edge="1">
          <mxGeometry relative="1" as="geometry">
            <mxPoint x="248" y="735" as="sourcePoint" />
            <mxPoint x="257" y="794.5" as="targetPoint" />
            <Array as="points">
              <mxPoint x="228" y="730" />
              <mxPoint x="228" y="830" />
            </Array>
          </mxGeometry>
        </mxCell>
        <mxCell id="8Bc5X0JGQG7bx1Ke6ycb-8" value="" style="edgeStyle=orthogonalEdgeStyle;rounded=1;orthogonalLoop=1;jettySize=auto;html=1;entryX=0;entryY=0.066;entryDx=0;entryDy=0;entryPerimeter=0;exitX=0;exitY=0.209;exitDx=0;exitDy=0;exitPerimeter=0;" parent="WIyWlLk6GJQsqaUBKTNV-1" source="WoGnkU7w-7urDZS7QDXh-17" target="WoGnkU7w-7urDZS7QDXh-22" edge="1">
          <mxGeometry relative="1" as="geometry">
            <mxPoint x="248" y="835" as="sourcePoint" />
            <mxPoint x="247" y="894" as="targetPoint" />
            <Array as="points">
              <mxPoint x="257" y="840" />
              <mxPoint x="228" y="840" />
              <mxPoint x="228" y="936" />
            </Array>
          </mxGeometry>
        </mxCell>
        <mxCell id="8Bc5X0JGQG7bx1Ke6ycb-9" value="" style="edgeStyle=orthogonalEdgeStyle;rounded=1;orthogonalLoop=1;jettySize=auto;html=1;exitX=0.002;exitY=0.218;exitDx=0;exitDy=0;exitPerimeter=0;entryX=0.001;entryY=0.339;entryDx=0;entryDy=0;entryPerimeter=0;" parent="WIyWlLk6GJQsqaUBKTNV-1" source="WoGnkU7w-7urDZS7QDXh-22" target="8Bc5X0JGQG7bx1Ke6ycb-10" edge="1">
          <mxGeometry relative="1" as="geometry">
            <mxPoint x="257" y="935" as="sourcePoint" />
            <mxPoint x="257" y="1095" as="targetPoint" />
            <Array as="points">
              <mxPoint x="228" y="950" />
              <mxPoint x="228" y="1050" />
            </Array>
          </mxGeometry>
        </mxCell>
        <mxCell id="8Bc5X0JGQG7bx1Ke6ycb-18" value="" style="edgeStyle=orthogonalEdgeStyle;rounded=1;orthogonalLoop=1;jettySize=auto;html=1;" parent="WIyWlLk6GJQsqaUBKTNV-1" source="8Bc5X0JGQG7bx1Ke6ycb-10" edge="1">
          <mxGeometry relative="1" as="geometry">
            <mxPoint x="696" y="156" as="targetPoint" />
            <Array as="points">
              <mxPoint x="697" y="1050" />
              <mxPoint x="697" y="180" />
              <mxPoint x="696" y="180" />
            </Array>
          </mxGeometry>
        </mxCell>
        <mxCell id="8Bc5X0JGQG7bx1Ke6ycb-10" value="&lt;div style=&quot;background-color: rgb(255, 255, 255); font-family: Consolas, &amp;quot;Courier New&amp;quot;, monospace; font-size: 14px; line-height: 19px;&quot;&gt;&lt;div style=&quot;line-height: 19px;&quot;&gt;&lt;div style=&quot;line-height: 19px;&quot;&gt;&lt;div style=&quot;line-height: 19px;&quot;&gt;&lt;div style=&quot;line-height: 19px;&quot;&gt;default&lt;/div&gt;&lt;/div&gt;&lt;/div&gt;&lt;/div&gt;&lt;/div&gt;" style="swimlane;fontStyle=0;childLayout=stackLayout;horizontal=1;startSize=30;horizontalStack=0;resizeParent=1;resizeParentMax=0;resizeLast=0;collapsible=1;marginBottom=0;whiteSpace=wrap;html=1;rounded=1;" parent="WIyWlLk6GJQsqaUBKTNV-1" vertex="1">
          <mxGeometry x="258" y="1040" width="310" height="30" as="geometry" />
        </mxCell>
        <mxCell id="8Bc5X0JGQG7bx1Ke6ycb-30" value="" style="edgeStyle=orthogonalEdgeStyle;rounded=1;orthogonalLoop=1;jettySize=auto;html=1;entryX=0.5;entryY=0;entryDx=0;entryDy=0;exitX=-0.004;exitY=0.13;exitDx=0;exitDy=0;exitPerimeter=0;" parent="WIyWlLk6GJQsqaUBKTNV-1" source="I1_TGJQqy7sbMWfpH_zE-6" target="WoGnkU7w-7urDZS7QDXh-27" edge="1">
          <mxGeometry relative="1" as="geometry">
            <mxPoint x="404" y="175" as="targetPoint" />
            <Array as="points">
              <mxPoint x="404" y="47" />
            </Array>
            <mxPoint x="472.00000000000045" y="125" as="sourcePoint" />
          </mxGeometry>
        </mxCell>
        <mxCell id="8Bc5X0JGQG7bx1Ke6ycb-25" value="" style="edgeStyle=orthogonalEdgeStyle;rounded=1;orthogonalLoop=1;jettySize=auto;html=1;" parent="WIyWlLk6GJQsqaUBKTNV-1" edge="1">
          <mxGeometry relative="1" as="geometry">
            <mxPoint x="568" y="895" as="sourcePoint" />
            <mxPoint x="698" y="895" as="targetPoint" />
          </mxGeometry>
        </mxCell>
        <mxCell id="8Bc5X0JGQG7bx1Ke6ycb-26" value="" style="edgeStyle=orthogonalEdgeStyle;rounded=1;orthogonalLoop=1;jettySize=auto;html=1;" parent="WIyWlLk6GJQsqaUBKTNV-1" edge="1">
          <mxGeometry relative="1" as="geometry">
            <mxPoint x="568" y="790" as="sourcePoint" />
            <mxPoint x="698" y="790" as="targetPoint" />
          </mxGeometry>
        </mxCell>
        <mxCell id="8Bc5X0JGQG7bx1Ke6ycb-27" value="" style="edgeStyle=orthogonalEdgeStyle;rounded=1;orthogonalLoop=1;jettySize=auto;html=1;" parent="WIyWlLk6GJQsqaUBKTNV-1" edge="1">
          <mxGeometry relative="1" as="geometry">
            <mxPoint x="566.62" y="674.7" as="sourcePoint" />
            <mxPoint x="696.62" y="674.7" as="targetPoint" />
          </mxGeometry>
        </mxCell>
        <mxCell id="8Bc5X0JGQG7bx1Ke6ycb-28" value="" style="edgeStyle=orthogonalEdgeStyle;rounded=1;orthogonalLoop=1;jettySize=auto;html=1;" parent="WIyWlLk6GJQsqaUBKTNV-1" edge="1">
          <mxGeometry relative="1" as="geometry">
            <mxPoint x="568" y="560" as="sourcePoint" />
            <mxPoint x="698" y="560" as="targetPoint" />
          </mxGeometry>
        </mxCell>
        <mxCell id="Gl0NQwR81N9QGxbBk9Pa-0" value="" style="edgeStyle=orthogonalEdgeStyle;rounded=0;orthogonalLoop=1;jettySize=auto;html=1;exitX=0.016;exitY=0.498;exitDx=0;exitDy=0;exitPerimeter=0;" parent="WIyWlLk6GJQsqaUBKTNV-1" source="WoGnkU7w-7urDZS7QDXh-27" edge="1">
          <mxGeometry relative="1" as="geometry">
            <mxPoint x="404" y="170" as="targetPoint" />
            <Array as="points">
              <mxPoint x="230" y="235" />
              <mxPoint x="230" y="170" />
            </Array>
          </mxGeometry>
        </mxCell>
        <mxCell id="Gl0NQwR81N9QGxbBk9Pa-2" value="No" style="edgeLabel;html=1;align=center;verticalAlign=middle;resizable=0;points=[];" parent="Gl0NQwR81N9QGxbBk9Pa-0" vertex="1" connectable="0">
          <mxGeometry x="-0.6516" relative="1" as="geometry">
            <mxPoint x="11" as="offset" />
          </mxGeometry>
        </mxCell>
        <mxCell id="WoGnkU7w-7urDZS7QDXh-27" value="&lt;div style=&quot;background-color: rgb(255, 255, 255); font-family: Consolas, &amp;quot;Courier New&amp;quot;, monospace; font-size: 14px; line-height: 19px;&quot;&gt;task_post_pure_msg(&lt;/div&gt;&lt;div style=&quot;background-color: rgb(255, 255, 255); font-family: Consolas, &amp;quot;Courier New&amp;quot;, monospace; font-size: 14px; line-height: 19px;&quot;&gt;&lt;font color=&quot;#ff3333&quot;&gt;AR_GAME_ARCHERY_ID&lt;/font&gt;,&amp;nbsp;&lt;/div&gt;&lt;div style=&quot;background-color: rgb(255, 255, 255); font-family: Consolas, &amp;quot;Courier New&amp;quot;, monospace; font-size: 14px; line-height: 19px;&quot;&gt;&lt;font color=&quot;#ff0000&quot;&gt;signal&lt;/font&gt;)&lt;/div&gt;" style="rhombus;whiteSpace=wrap;html=1;rounded=1;" parent="WIyWlLk6GJQsqaUBKTNV-1" vertex="1">
          <mxGeometry x="241.37" y="180" width="325.25" height="110" as="geometry" />
        </mxCell>
        <mxCell id="8Bc5X0JGQG7bx1Ke6ycb-33" value="&lt;b&gt;(1)&lt;/b&gt;" style="text;html=1;strokeColor=none;fillColor=none;align=center;verticalAlign=middle;whiteSpace=wrap;rounded=0;" parent="WIyWlLk6GJQsqaUBKTNV-1" vertex="1">
          <mxGeometry x="348" y="20" width="30" height="30" as="geometry" />
        </mxCell>
        <mxCell id="8Bc5X0JGQG7bx1Ke6ycb-34" value="&lt;b&gt;(2)&lt;/b&gt;" style="text;html=1;strokeColor=none;fillColor=none;align=center;verticalAlign=middle;whiteSpace=wrap;rounded=0;" parent="WIyWlLk6GJQsqaUBKTNV-1" vertex="1">
          <mxGeometry x="348" y="80" width="30" height="30" as="geometry" />
        </mxCell>
        <mxCell id="8Bc5X0JGQG7bx1Ke6ycb-35" value="&lt;b&gt;(3)&lt;/b&gt;" style="text;html=1;strokeColor=none;fillColor=none;align=center;verticalAlign=middle;whiteSpace=wrap;rounded=0;" parent="WIyWlLk6GJQsqaUBKTNV-1" vertex="1">
          <mxGeometry x="428" y="20" width="30" height="30" as="geometry" />
        </mxCell>
        <mxCell id="8Bc5X0JGQG7bx1Ke6ycb-36" value="&lt;b&gt;(4)&lt;/b&gt;" style="text;html=1;strokeColor=none;fillColor=none;align=center;verticalAlign=middle;whiteSpace=wrap;rounded=0;" parent="WIyWlLk6GJQsqaUBKTNV-1" vertex="1">
          <mxGeometry x="188" y="220" width="30" height="30" as="geometry" />
        </mxCell>
        <mxCell id="8Bc5X0JGQG7bx1Ke6ycb-38" value="&lt;b&gt;(7)&lt;/b&gt;" style="text;html=1;strokeColor=none;fillColor=none;align=center;verticalAlign=middle;whiteSpace=wrap;rounded=0;" parent="WIyWlLk6GJQsqaUBKTNV-1" vertex="1">
          <mxGeometry x="566.62" y="530" width="30" height="30" as="geometry" />
        </mxCell>
        <mxCell id="8Bc5X0JGQG7bx1Ke6ycb-39" value="&lt;b&gt;(8)&lt;/b&gt;" style="text;html=1;strokeColor=none;fillColor=none;align=center;verticalAlign=middle;whiteSpace=wrap;rounded=0;" parent="WIyWlLk6GJQsqaUBKTNV-1" vertex="1">
          <mxGeometry x="568" y="640" width="30" height="40" as="geometry" />
        </mxCell>
        <mxCell id="8Bc5X0JGQG7bx1Ke6ycb-40" value="&lt;b&gt;(9)&lt;/b&gt;" style="text;html=1;strokeColor=none;fillColor=none;align=center;verticalAlign=middle;whiteSpace=wrap;rounded=0;" parent="WIyWlLk6GJQsqaUBKTNV-1" vertex="1">
          <mxGeometry x="568" y="760" width="30" height="30" as="geometry" />
        </mxCell>
        <mxCell id="8Bc5X0JGQG7bx1Ke6ycb-41" value="&lt;b&gt;(10)&lt;/b&gt;" style="text;html=1;strokeColor=none;fillColor=none;align=center;verticalAlign=middle;whiteSpace=wrap;rounded=0;" parent="WIyWlLk6GJQsqaUBKTNV-1" vertex="1">
          <mxGeometry x="568" y="855" width="30" height="30" as="geometry" />
        </mxCell>
        <mxCell id="8Bc5X0JGQG7bx1Ke6ycb-42" value="&lt;b&gt;(11)&lt;/b&gt;" style="text;html=1;strokeColor=none;fillColor=none;align=center;verticalAlign=middle;whiteSpace=wrap;rounded=0;" parent="WIyWlLk6GJQsqaUBKTNV-1" vertex="1">
          <mxGeometry x="566.62" y="975" width="30" height="30" as="geometry" />
        </mxCell>
        <mxCell id="8Bc5X0JGQG7bx1Ke6ycb-43" value="&lt;b&gt;(12)&lt;/b&gt;" style="text;html=1;strokeColor=none;fillColor=none;align=center;verticalAlign=middle;whiteSpace=wrap;rounded=0;" parent="WIyWlLk6GJQsqaUBKTNV-1" vertex="1">
          <mxGeometry x="658" y="1020" width="30" height="30" as="geometry" />
        </mxCell>
        <mxCell id="I1_TGJQqy7sbMWfpH_zE-6" value="scr_archery_game_handle(&lt;span style=&quot;border-color: var(--border-color); font-family: Consolas, &amp;quot;Courier New&amp;quot;, monospace; font-size: 14px; color: rgb(38, 127, 153);&quot;&gt;ak_msg_t&lt;/span&gt;&lt;span style=&quot;border-color: var(--border-color); font-family: Consolas, &amp;quot;Courier New&amp;quot;, monospace; font-size: 14px; color: rgb(0, 0, 255);&quot;&gt;*&lt;/span&gt;&lt;span style=&quot;font-family: Consolas, &amp;quot;Courier New&amp;quot;, monospace; font-size: 14px; background-color: rgb(255, 255, 255);&quot;&gt;&amp;nbsp;&lt;/span&gt;&lt;span style=&quot;border-color: var(--border-color); font-family: Consolas, &amp;quot;Courier New&amp;quot;, monospace; font-size: 14px; color: rgb(0, 16, 128);&quot;&gt;msg&lt;/span&gt;&lt;span style=&quot;font-family: Consolas, &amp;quot;Courier New&amp;quot;, monospace; font-size: 14px; background-color: rgb(255, 255, 255);&quot;&gt;)&lt;/span&gt;" style="swimlane;fontStyle=0;childLayout=stackLayout;horizontal=1;startSize=40;horizontalStack=0;resizeParent=1;resizeParentMax=0;resizeLast=0;collapsible=1;marginBottom=0;whiteSpace=wrap;html=1;" parent="WIyWlLk6GJQsqaUBKTNV-1" vertex="1">
          <mxGeometry x="472" y="30" width="286" height="130" as="geometry" />
        </mxCell>
        <mxCell id="I1_TGJQqy7sbMWfpH_zE-7" value="&lt;div style=&quot;background-color: rgb(255, 255, 255); font-family: Consolas, &amp;quot;Courier New&amp;quot;, monospace; font-size: 14px; line-height: 19px;&quot;&gt;AR_GAME_ARCHERY_SETUP&lt;/div&gt;" style="text;strokeColor=none;fillColor=none;align=left;verticalAlign=middle;spacingLeft=4;spacingRight=4;overflow=hidden;points=[[0,0.5],[1,0.5]];portConstraint=eastwest;rotatable=0;whiteSpace=wrap;html=1;" parent="I1_TGJQqy7sbMWfpH_zE-6" vertex="1">
          <mxGeometry y="40" width="286" height="30" as="geometry" />
        </mxCell>
        <mxCell id="I1_TGJQqy7sbMWfpH_zE-8" value="&lt;div style=&quot;background-color: rgb(255, 255, 255); font-family: Consolas, &amp;quot;Courier New&amp;quot;, monospace; font-size: 14px; line-height: 19px;&quot;&gt;AR_GAME_ARCHERY_UPDATE&lt;/div&gt;" style="text;strokeColor=none;fillColor=none;align=left;verticalAlign=middle;spacingLeft=4;spacingRight=4;overflow=hidden;points=[[0,0.5],[1,0.5]];portConstraint=eastwest;rotatable=0;whiteSpace=wrap;html=1;" parent="I1_TGJQqy7sbMWfpH_zE-6" vertex="1">
          <mxGeometry y="70" width="286" height="30" as="geometry" />
        </mxCell>
        <mxCell id="I1_TGJQqy7sbMWfpH_zE-9" value="&lt;div style=&quot;background-color: rgb(255, 255, 255); font-family: Consolas, &amp;quot;Courier New&amp;quot;, monospace; font-size: 14px; line-height: 19px;&quot;&gt;AR_GAME_ARCHERY_RESET&lt;/div&gt;" style="text;strokeColor=none;fillColor=none;align=left;verticalAlign=middle;spacingLeft=4;spacingRight=4;overflow=hidden;points=[[0,0.5],[1,0.5]];portConstraint=eastwest;rotatable=0;whiteSpace=wrap;html=1;" parent="I1_TGJQqy7sbMWfpH_zE-6" vertex="1">
          <mxGeometry y="100" width="286" height="30" as="geometry" />
        </mxCell>
        <mxCell id="I1_TGJQqy7sbMWfpH_zE-10" value="btn_up_callback(&lt;span style=&quot;border-color: var(--border-color); font-family: Consolas, &amp;quot;Courier New&amp;quot;, monospace; font-size: 14px; background-color: rgb(255, 255, 255); color: rgb(0, 0, 255);&quot;&gt;void*&lt;/span&gt;&lt;span style=&quot;font-family: Consolas, &amp;quot;Courier New&amp;quot;, monospace; font-size: 14px; background-color: rgb(255, 255, 255);&quot;&gt;&amp;nbsp;&lt;/span&gt;&lt;span style=&quot;border-color: var(--border-color); font-family: Consolas, &amp;quot;Courier New&amp;quot;, monospace; font-size: 14px; background-color: rgb(255, 255, 255); color: rgb(0, 16, 128);&quot;&gt;b&lt;/span&gt;&lt;span style=&quot;font-family: Consolas, &amp;quot;Courier New&amp;quot;, monospace; font-size: 14px; background-color: rgb(255, 255, 255);&quot;&gt;)&lt;/span&gt;" style="swimlane;fontStyle=0;childLayout=stackLayout;horizontal=1;startSize=30;horizontalStack=0;resizeParent=1;resizeParentMax=0;resizeLast=0;collapsible=1;marginBottom=0;whiteSpace=wrap;html=1;" parent="WIyWlLk6GJQsqaUBKTNV-1" vertex="1">
          <mxGeometry x="60" y="30" width="286" height="60" as="geometry" />
        </mxCell>
        <mxCell id="I1_TGJQqy7sbMWfpH_zE-11" value="&lt;div style=&quot;background-color: rgb(255, 255, 255); font-family: Consolas, &amp;quot;Courier New&amp;quot;, monospace; font-size: 14px; line-height: 19px;&quot;&gt;AR_GAME_ARCHERY_UP&lt;/div&gt;" style="text;strokeColor=none;fillColor=none;align=left;verticalAlign=middle;spacingLeft=4;spacingRight=4;overflow=hidden;points=[[0,0.5],[1,0.5]];portConstraint=eastwest;rotatable=0;whiteSpace=wrap;html=1;" parent="I1_TGJQqy7sbMWfpH_zE-10" vertex="1">
          <mxGeometry y="30" width="286" height="30" as="geometry" />
        </mxCell>
        <mxCell id="I1_TGJQqy7sbMWfpH_zE-14" value="btn_down_callback(&lt;span style=&quot;border-color: var(--border-color); font-family: Consolas, &amp;quot;Courier New&amp;quot;, monospace; font-size: 14px; background-color: rgb(255, 255, 255); color: rgb(0, 0, 255);&quot;&gt;void*&lt;/span&gt;&lt;span style=&quot;font-family: Consolas, &amp;quot;Courier New&amp;quot;, monospace; font-size: 14px; background-color: rgb(255, 255, 255);&quot;&gt;&amp;nbsp;&lt;/span&gt;&lt;span style=&quot;border-color: var(--border-color); font-family: Consolas, &amp;quot;Courier New&amp;quot;, monospace; font-size: 14px; background-color: rgb(255, 255, 255); color: rgb(0, 16, 128);&quot;&gt;b&lt;/span&gt;&lt;span style=&quot;font-family: Consolas, &amp;quot;Courier New&amp;quot;, monospace; font-size: 14px; background-color: rgb(255, 255, 255);&quot;&gt;)&lt;/span&gt;" style="swimlane;fontStyle=0;childLayout=stackLayout;horizontal=1;startSize=30;horizontalStack=0;resizeParent=1;resizeParentMax=0;resizeLast=0;collapsible=1;marginBottom=0;whiteSpace=wrap;html=1;" parent="WIyWlLk6GJQsqaUBKTNV-1" vertex="1">
          <mxGeometry x="60" y="100" width="286" height="60" as="geometry" />
        </mxCell>
        <mxCell id="I1_TGJQqy7sbMWfpH_zE-15" value="&lt;div style=&quot;background-color: rgb(255, 255, 255); font-family: Consolas, &amp;quot;Courier New&amp;quot;, monospace; font-size: 14px; line-height: 19px;&quot;&gt;AR_GAME_ARCHERY_DOWN&lt;/div&gt;" style="text;strokeColor=none;fillColor=none;align=left;verticalAlign=middle;spacingLeft=4;spacingRight=4;overflow=hidden;points=[[0,0.5],[1,0.5]];portConstraint=eastwest;rotatable=0;whiteSpace=wrap;html=1;" parent="I1_TGJQqy7sbMWfpH_zE-14" vertex="1">
          <mxGeometry y="30" width="286" height="30" as="geometry" />
        </mxCell>
        <mxCell id="I1_TGJQqy7sbMWfpH_zE-21" value="" style="edgeStyle=orthogonalEdgeStyle;rounded=1;orthogonalLoop=1;jettySize=auto;html=1;entryX=0.504;entryY=0.015;entryDx=0;entryDy=0;exitX=1;exitY=0.25;exitDx=0;exitDy=0;entryPerimeter=0;" parent="WIyWlLk6GJQsqaUBKTNV-1" source="I1_TGJQqy7sbMWfpH_zE-10" target="WoGnkU7w-7urDZS7QDXh-27" edge="1">
          <mxGeometry relative="1" as="geometry">
            <mxPoint x="405" y="165" as="targetPoint" />
            <Array as="points">
              <mxPoint x="346" y="47" />
              <mxPoint x="405" y="47" />
            </Array>
            <mxPoint x="472" y="47" as="sourcePoint" />
          </mxGeometry>
        </mxCell>
        <mxCell id="I1_TGJQqy7sbMWfpH_zE-22" value="" style="edgeStyle=orthogonalEdgeStyle;rounded=1;orthogonalLoop=1;jettySize=auto;html=1;entryX=0.502;entryY=0.014;entryDx=0;entryDy=0;exitX=1;exitY=0.25;exitDx=0;exitDy=0;entryPerimeter=0;" parent="WIyWlLk6GJQsqaUBKTNV-1" source="I1_TGJQqy7sbMWfpH_zE-14" target="WoGnkU7w-7urDZS7QDXh-27" edge="1">
          <mxGeometry relative="1" as="geometry">
            <mxPoint x="405" y="165" as="targetPoint" />
            <Array as="points">
              <mxPoint x="346" y="110" />
              <mxPoint x="405" y="110" />
            </Array>
            <mxPoint x="472" y="47" as="sourcePoint" />
          </mxGeometry>
        </mxCell>
        <mxCell id="I1_TGJQqy7sbMWfpH_zE-23" value="&lt;b&gt;(5)&lt;/b&gt;" style="text;html=1;strokeColor=none;fillColor=none;align=center;verticalAlign=middle;whiteSpace=wrap;rounded=0;" parent="WIyWlLk6GJQsqaUBKTNV-1" vertex="1">
          <mxGeometry x="188" y="280" width="30" height="30" as="geometry" />
        </mxCell>
        <mxCell id="mS9mN7FK9Wahz5sAWF41-1" value="" style="edgeStyle=orthogonalEdgeStyle;rounded=1;orthogonalLoop=1;jettySize=auto;html=1;" parent="WIyWlLk6GJQsqaUBKTNV-1" edge="1">
          <mxGeometry relative="1" as="geometry">
            <mxPoint x="566.62" y="1005" as="sourcePoint" />
            <mxPoint x="696.62" y="1005" as="targetPoint" />
          </mxGeometry>
        </mxCell>
        <mxCell id="Gl0NQwR81N9QGxbBk9Pa-3" value="&lt;b&gt;(6)&lt;/b&gt;" style="text;html=1;strokeColor=none;fillColor=none;align=center;verticalAlign=middle;whiteSpace=wrap;rounded=0;" parent="WIyWlLk6GJQsqaUBKTNV-1" vertex="1">
          <mxGeometry x="188" y="375" width="30" height="30" as="geometry" />
        </mxCell>
      </root>
    </mxGraphModel>
  </diagram>
  <diagram id="zqVmv1tSFtd7yMDg36jN" name="Page-2">
    <mxGraphModel dx="527" dy="532" grid="1" gridSize="10" guides="1" tooltips="1" connect="1" arrows="1" fold="1" page="1" pageScale="1" pageWidth="850" pageHeight="1100" math="0" shadow="0">
      <root>
        <mxCell id="0" />
        <mxCell id="1" parent="0" />
        <mxCell id="2W3vLu9KmN9YGZMTVSio-1" value="Screen" style="rounded=1;whiteSpace=wrap;html=1;" vertex="1" parent="1">
          <mxGeometry x="280" y="80" width="80" height="40" as="geometry" />
        </mxCell>
        <mxCell id="2W3vLu9KmN9YGZMTVSio-2" value="Button" style="rounded=1;whiteSpace=wrap;html=1;" vertex="1" parent="1">
          <mxGeometry x="140" y="80" width="80" height="40" as="geometry" />
        </mxCell>
        <mxCell id="2W3vLu9KmN9YGZMTVSio-3" value="Archery" style="rounded=1;whiteSpace=wrap;html=1;" vertex="1" parent="1">
          <mxGeometry x="480" y="80" width="80" height="40" as="geometry" />
        </mxCell>
        <mxCell id="2W3vLu9KmN9YGZMTVSio-4" value="" style="endArrow=none;dashed=1;html=1;rounded=0;entryX=0.5;entryY=1;entryDx=0;entryDy=0;" edge="1" parent="1" target="2W3vLu9KmN9YGZMTVSio-1">
          <mxGeometry width="50" height="50" relative="1" as="geometry">
            <mxPoint x="320" y="480" as="sourcePoint" />
            <mxPoint x="580" y="270" as="targetPoint" />
          </mxGeometry>
        </mxCell>
        <mxCell id="2W3vLu9KmN9YGZMTVSio-5" value="" style="endArrow=none;dashed=1;html=1;rounded=0;entryX=0.5;entryY=1;entryDx=0;entryDy=0;" edge="1" parent="1" source="2W3vLu9KmN9YGZMTVSio-11" target="2W3vLu9KmN9YGZMTVSio-2">
          <mxGeometry width="50" height="50" relative="1" as="geometry">
            <mxPoint x="180" y="480" as="sourcePoint" />
            <mxPoint x="30" y="130" as="targetPoint" />
          </mxGeometry>
        </mxCell>
        <mxCell id="2W3vLu9KmN9YGZMTVSio-6" value="" style="endArrow=none;dashed=1;html=1;rounded=0;entryX=0.5;entryY=1;entryDx=0;entryDy=0;" edge="1" parent="1" source="2W3vLu9KmN9YGZMTVSio-9" target="2W3vLu9KmN9YGZMTVSio-3">
          <mxGeometry width="50" height="50" relative="1" as="geometry">
            <mxPoint x="520" y="490" as="sourcePoint" />
            <mxPoint x="520" y="130" as="targetPoint" />
          </mxGeometry>
        </mxCell>
        <mxCell id="2W3vLu9KmN9YGZMTVSio-14" value="" style="edgeStyle=orthogonalEdgeStyle;rounded=0;orthogonalLoop=1;jettySize=auto;html=1;entryX=0;entryY=0;entryDx=0;entryDy=0;" edge="1" parent="1" target="2W3vLu9KmN9YGZMTVSio-9">
          <mxGeometry relative="1" as="geometry">
            <mxPoint x="325.11" y="160" as="sourcePoint" />
            <mxPoint x="410.11" y="310.0000000000001" as="targetPoint" />
            <Array as="points">
              <mxPoint x="370.11" y="160" />
              <mxPoint x="370.11" y="160" />
            </Array>
          </mxGeometry>
        </mxCell>
        <mxCell id="2W3vLu9KmN9YGZMTVSio-15" value="AR_GAME_ARCHERY_SETUP" style="edgeLabel;html=1;align=center;verticalAlign=middle;resizable=0;points=[];" vertex="1" connectable="0" parent="2W3vLu9KmN9YGZMTVSio-14">
          <mxGeometry x="-0.0338" y="-2" relative="1" as="geometry">
            <mxPoint x="8" y="-12" as="offset" />
          </mxGeometry>
        </mxCell>
        <mxCell id="2W3vLu9KmN9YGZMTVSio-7" value="" style="rounded=0;whiteSpace=wrap;html=1;" vertex="1" parent="1">
          <mxGeometry x="315" y="120" width="10" height="380" as="geometry" />
        </mxCell>
        <mxCell id="2W3vLu9KmN9YGZMTVSio-10" value="" style="endArrow=none;dashed=1;html=1;rounded=0;entryX=0.5;entryY=1;entryDx=0;entryDy=0;" edge="1" parent="1" target="2W3vLu9KmN9YGZMTVSio-9">
          <mxGeometry width="50" height="50" relative="1" as="geometry">
            <mxPoint x="520" y="480" as="sourcePoint" />
            <mxPoint x="520" y="120" as="targetPoint" />
          </mxGeometry>
        </mxCell>
        <mxCell id="2W3vLu9KmN9YGZMTVSio-17" value="" style="edgeStyle=orthogonalEdgeStyle;rounded=0;orthogonalLoop=1;jettySize=auto;html=1;exitX=0;exitY=1;exitDx=0;exitDy=0;entryX=1;entryY=0.147;entryDx=0;entryDy=0;entryPerimeter=0;dashed=1;" edge="1" parent="1" source="2W3vLu9KmN9YGZMTVSio-9">
          <mxGeometry relative="1" as="geometry">
            <mxPoint x="325.1099999999999" y="179.97999999999996" as="targetPoint" />
            <Array as="points">
              <mxPoint x="440.11" y="180" />
              <mxPoint x="440.11" y="180" />
            </Array>
          </mxGeometry>
        </mxCell>
        <mxCell id="2W3vLu9KmN9YGZMTVSio-9" value="" style="rounded=0;whiteSpace=wrap;html=1;" vertex="1" parent="1">
          <mxGeometry x="515.11" y="160" width="10" height="20" as="geometry" />
        </mxCell>
        <mxCell id="2W3vLu9KmN9YGZMTVSio-12" value="" style="endArrow=none;dashed=1;html=1;rounded=0;entryX=0.5;entryY=1;entryDx=0;entryDy=0;" edge="1" parent="1" source="2W3vLu9KmN9YGZMTVSio-27" target="2W3vLu9KmN9YGZMTVSio-11">
          <mxGeometry width="50" height="50" relative="1" as="geometry">
            <mxPoint x="180" y="480" as="sourcePoint" />
            <mxPoint x="180" y="120" as="targetPoint" />
          </mxGeometry>
        </mxCell>
        <mxCell id="2W3vLu9KmN9YGZMTVSio-11" value="" style="rounded=0;whiteSpace=wrap;html=1;" vertex="1" parent="1">
          <mxGeometry x="175" y="250" width="10" height="30" as="geometry" />
        </mxCell>
        <mxCell id="2W3vLu9KmN9YGZMTVSio-19" value="" style="edgeStyle=orthogonalEdgeStyle;rounded=0;orthogonalLoop=1;jettySize=auto;html=1;entryX=0;entryY=0;entryDx=0;entryDy=0;exitX=0.989;exitY=0.265;exitDx=0;exitDy=0;exitPerimeter=0;" edge="1" parent="1" target="2W3vLu9KmN9YGZMTVSio-22">
          <mxGeometry relative="1" as="geometry">
            <mxPoint x="324.9999999999998" y="220.09999999999997" as="sourcePoint" />
            <mxPoint x="410.11" y="370.0000000000001" as="targetPoint" />
            <Array as="points">
              <mxPoint x="370.11" y="220" />
            </Array>
          </mxGeometry>
        </mxCell>
        <mxCell id="2W3vLu9KmN9YGZMTVSio-20" value="AR_GAME_ARCHERY_UPDATE" style="edgeLabel;html=1;align=center;verticalAlign=middle;resizable=0;points=[];" vertex="1" connectable="0" parent="2W3vLu9KmN9YGZMTVSio-19">
          <mxGeometry x="-0.0338" y="-2" relative="1" as="geometry">
            <mxPoint x="8" y="-12" as="offset" />
          </mxGeometry>
        </mxCell>
        <mxCell id="2W3vLu9KmN9YGZMTVSio-21" value="" style="edgeStyle=orthogonalEdgeStyle;rounded=0;orthogonalLoop=1;jettySize=auto;html=1;exitX=0;exitY=1;exitDx=0;exitDy=0;dashed=1;entryX=1.019;entryY=0.324;entryDx=0;entryDy=0;entryPerimeter=0;" edge="1" parent="1" source="2W3vLu9KmN9YGZMTVSio-22">
          <mxGeometry relative="1" as="geometry">
            <mxPoint x="325.29999999999984" y="240.16000000000008" as="targetPoint" />
            <Array as="points">
              <mxPoint x="440.11" y="240" />
            </Array>
          </mxGeometry>
        </mxCell>
        <mxCell id="2W3vLu9KmN9YGZMTVSio-22" value="" style="rounded=0;whiteSpace=wrap;html=1;" vertex="1" parent="1">
          <mxGeometry x="515.11" y="220" width="10" height="20" as="geometry" />
        </mxCell>
        <mxCell id="2W3vLu9KmN9YGZMTVSio-23" value="" style="edgeStyle=orthogonalEdgeStyle;rounded=0;orthogonalLoop=1;jettySize=auto;html=1;entryX=0;entryY=0;entryDx=0;entryDy=0;exitX=0.989;exitY=0.265;exitDx=0;exitDy=0;exitPerimeter=0;" edge="1" parent="1" target="2W3vLu9KmN9YGZMTVSio-26">
          <mxGeometry relative="1" as="geometry">
            <mxPoint x="325.11" y="420" as="sourcePoint" />
            <mxPoint x="410.11" y="570.0000000000001" as="targetPoint" />
            <Array as="points">
              <mxPoint x="370.11" y="420" />
            </Array>
          </mxGeometry>
        </mxCell>
        <mxCell id="2W3vLu9KmN9YGZMTVSio-24" value="AR_GAME_ARCHERY_UPDATE" style="edgeLabel;html=1;align=center;verticalAlign=middle;resizable=0;points=[];" vertex="1" connectable="0" parent="2W3vLu9KmN9YGZMTVSio-23">
          <mxGeometry x="-0.0338" y="-2" relative="1" as="geometry">
            <mxPoint x="8" y="-12" as="offset" />
          </mxGeometry>
        </mxCell>
        <mxCell id="2W3vLu9KmN9YGZMTVSio-25" value="" style="edgeStyle=orthogonalEdgeStyle;rounded=0;orthogonalLoop=1;jettySize=auto;html=1;exitX=0;exitY=1;exitDx=0;exitDy=0;dashed=1;entryX=1.019;entryY=0.324;entryDx=0;entryDy=0;entryPerimeter=0;" edge="1" parent="1" source="2W3vLu9KmN9YGZMTVSio-26">
          <mxGeometry relative="1" as="geometry">
            <mxPoint x="325.11" y="440" as="targetPoint" />
            <Array as="points">
              <mxPoint x="440.11" y="440" />
            </Array>
          </mxGeometry>
        </mxCell>
        <mxCell id="2W3vLu9KmN9YGZMTVSio-26" value="" style="rounded=0;whiteSpace=wrap;html=1;" vertex="1" parent="1">
          <mxGeometry x="515.11" y="420" width="10" height="20" as="geometry" />
        </mxCell>
        <mxCell id="2W3vLu9KmN9YGZMTVSio-29" value="" style="endArrow=none;dashed=1;html=1;rounded=0;entryX=0.5;entryY=1;entryDx=0;entryDy=0;" edge="1" parent="1" target="2W3vLu9KmN9YGZMTVSio-27">
          <mxGeometry width="50" height="50" relative="1" as="geometry">
            <mxPoint x="180" y="500" as="sourcePoint" />
            <mxPoint x="180" y="280" as="targetPoint" />
          </mxGeometry>
        </mxCell>
        <mxCell id="2W3vLu9KmN9YGZMTVSio-27" value="" style="rounded=0;whiteSpace=wrap;html=1;" vertex="1" parent="1">
          <mxGeometry x="175" y="350" width="10" height="30" as="geometry" />
        </mxCell>
        <mxCell id="2W3vLu9KmN9YGZMTVSio-30" value="" style="edgeStyle=orthogonalEdgeStyle;rounded=0;orthogonalLoop=1;jettySize=auto;html=1;entryX=0;entryY=0;entryDx=0;entryDy=0;exitX=1;exitY=1;exitDx=0;exitDy=0;" edge="1" parent="1" target="2W3vLu9KmN9YGZMTVSio-33" source="2W3vLu9KmN9YGZMTVSio-11">
          <mxGeometry relative="1" as="geometry">
            <mxPoint x="324.9999999999998" y="280.03999999999996" as="sourcePoint" />
            <mxPoint x="410.11" y="429.9400000000001" as="targetPoint" />
            <Array as="points">
              <mxPoint x="430" y="280" />
              <mxPoint x="430" y="280" />
            </Array>
          </mxGeometry>
        </mxCell>
        <mxCell id="2W3vLu9KmN9YGZMTVSio-31" value="AR_GAME_ARCHERY_UP" style="edgeLabel;html=1;align=center;verticalAlign=middle;resizable=0;points=[];" vertex="1" connectable="0" parent="2W3vLu9KmN9YGZMTVSio-30">
          <mxGeometry x="-0.0338" y="-2" relative="1" as="geometry">
            <mxPoint x="77" y="-12" as="offset" />
          </mxGeometry>
        </mxCell>
        <mxCell id="2W3vLu9KmN9YGZMTVSio-33" value="" style="rounded=0;whiteSpace=wrap;html=1;" vertex="1" parent="1">
          <mxGeometry x="515.11" y="279.94" width="10" height="10.06" as="geometry" />
        </mxCell>
        <mxCell id="2W3vLu9KmN9YGZMTVSio-34" value="" style="edgeStyle=orthogonalEdgeStyle;rounded=0;orthogonalLoop=1;jettySize=auto;html=1;entryX=0;entryY=0;entryDx=0;entryDy=0;exitX=0.989;exitY=0.265;exitDx=0;exitDy=0;exitPerimeter=0;" edge="1" parent="1" target="2W3vLu9KmN9YGZMTVSio-37">
          <mxGeometry relative="1" as="geometry">
            <mxPoint x="324.88999999999976" y="320.09999999999997" as="sourcePoint" />
            <mxPoint x="410" y="470.0000000000001" as="targetPoint" />
            <Array as="points">
              <mxPoint x="370" y="320" />
            </Array>
          </mxGeometry>
        </mxCell>
        <mxCell id="2W3vLu9KmN9YGZMTVSio-35" value="AR_GAME_ARCHERY_UPDATE" style="edgeLabel;html=1;align=center;verticalAlign=middle;resizable=0;points=[];" vertex="1" connectable="0" parent="2W3vLu9KmN9YGZMTVSio-34">
          <mxGeometry x="-0.0338" y="-2" relative="1" as="geometry">
            <mxPoint x="8" y="-12" as="offset" />
          </mxGeometry>
        </mxCell>
        <mxCell id="2W3vLu9KmN9YGZMTVSio-36" value="" style="edgeStyle=orthogonalEdgeStyle;rounded=0;orthogonalLoop=1;jettySize=auto;html=1;exitX=0;exitY=1;exitDx=0;exitDy=0;dashed=1;entryX=1.019;entryY=0.324;entryDx=0;entryDy=0;entryPerimeter=0;" edge="1" parent="1" source="2W3vLu9KmN9YGZMTVSio-37">
          <mxGeometry relative="1" as="geometry">
            <mxPoint x="325.1899999999998" y="340.1600000000001" as="targetPoint" />
            <Array as="points">
              <mxPoint x="440" y="340" />
            </Array>
          </mxGeometry>
        </mxCell>
        <mxCell id="2W3vLu9KmN9YGZMTVSio-37" value="" style="rounded=0;whiteSpace=wrap;html=1;" vertex="1" parent="1">
          <mxGeometry x="515" y="320" width="10" height="20" as="geometry" />
        </mxCell>
        <mxCell id="2W3vLu9KmN9YGZMTVSio-38" value="" style="edgeStyle=orthogonalEdgeStyle;rounded=0;orthogonalLoop=1;jettySize=auto;html=1;entryX=0;entryY=0;entryDx=0;entryDy=0;exitX=1;exitY=1;exitDx=0;exitDy=0;" edge="1" parent="1" target="2W3vLu9KmN9YGZMTVSio-40">
          <mxGeometry relative="1" as="geometry">
            <mxPoint x="184.89" y="379.96" as="sourcePoint" />
            <mxPoint x="410" y="529.9000000000001" as="targetPoint" />
            <Array as="points">
              <mxPoint x="429.89" y="379.96" />
              <mxPoint x="429.89" y="379.96" />
            </Array>
          </mxGeometry>
        </mxCell>
        <mxCell id="2W3vLu9KmN9YGZMTVSio-39" value="AR_GAME_ARCHERY_DOWN" style="edgeLabel;html=1;align=center;verticalAlign=middle;resizable=0;points=[];" vertex="1" connectable="0" parent="2W3vLu9KmN9YGZMTVSio-38">
          <mxGeometry x="-0.0338" y="-2" relative="1" as="geometry">
            <mxPoint x="77" y="-12" as="offset" />
          </mxGeometry>
        </mxCell>
        <mxCell id="2W3vLu9KmN9YGZMTVSio-40" value="" style="rounded=0;whiteSpace=wrap;html=1;" vertex="1" parent="1">
          <mxGeometry x="515" y="379.9" width="10" height="10.1" as="geometry" />
        </mxCell>
        <mxCell id="2W3vLu9KmN9YGZMTVSio-42" value="" style="edgeStyle=orthogonalEdgeStyle;rounded=0;orthogonalLoop=1;jettySize=auto;html=1;entryX=0;entryY=0;entryDx=0;entryDy=0;exitX=0.989;exitY=0.265;exitDx=0;exitDy=0;exitPerimeter=0;" edge="1" parent="1" target="2W3vLu9KmN9YGZMTVSio-45">
          <mxGeometry relative="1" as="geometry">
            <mxPoint x="325.11" y="480" as="sourcePoint" />
            <mxPoint x="410.11" y="630.0000000000001" as="targetPoint" />
            <Array as="points">
              <mxPoint x="370.11" y="480" />
            </Array>
          </mxGeometry>
        </mxCell>
        <mxCell id="2W3vLu9KmN9YGZMTVSio-43" value="AR_GAME_ARCHERY_RESET" style="edgeLabel;html=1;align=center;verticalAlign=middle;resizable=0;points=[];" vertex="1" connectable="0" parent="2W3vLu9KmN9YGZMTVSio-42">
          <mxGeometry x="-0.0338" y="-2" relative="1" as="geometry">
            <mxPoint x="8" y="-12" as="offset" />
          </mxGeometry>
        </mxCell>
        <mxCell id="2W3vLu9KmN9YGZMTVSio-44" value="" style="edgeStyle=orthogonalEdgeStyle;rounded=0;orthogonalLoop=1;jettySize=auto;html=1;exitX=0;exitY=1;exitDx=0;exitDy=0;dashed=1;entryX=1.019;entryY=0.324;entryDx=0;entryDy=0;entryPerimeter=0;" edge="1" parent="1" source="2W3vLu9KmN9YGZMTVSio-45">
          <mxGeometry relative="1" as="geometry">
            <mxPoint x="325.11" y="500" as="targetPoint" />
            <Array as="points">
              <mxPoint x="440.11" y="500" />
            </Array>
          </mxGeometry>
        </mxCell>
        <mxCell id="2W3vLu9KmN9YGZMTVSio-45" value="" style="rounded=0;whiteSpace=wrap;html=1;" vertex="1" parent="1">
          <mxGeometry x="515.11" y="480" width="10" height="20" as="geometry" />
        </mxCell>
        <mxCell id="2W3vLu9KmN9YGZMTVSio-51" value="button [Down]" style="shape=callout;whiteSpace=wrap;html=1;perimeter=calloutPerimeter;position2=1;base=18;size=20;position=0.59;" vertex="1" parent="1">
          <mxGeometry x="80" y="310" width="95" height="49.94" as="geometry" />
        </mxCell>
        <mxCell id="2W3vLu9KmN9YGZMTVSio-52" value="Setup thuộc tính&amp;nbsp;&lt;br&gt;ban đầu" style="shape=callout;whiteSpace=wrap;html=1;perimeter=calloutPerimeter;position2=0;base=22;size=10;position=0.17;" vertex="1" parent="1">
          <mxGeometry x="530" y="130" width="100.11" height="40" as="geometry" />
        </mxCell>
        <mxCell id="2W3vLu9KmN9YGZMTVSio-53" value="Cập nhật vị trí" style="shape=callout;whiteSpace=wrap;html=1;perimeter=calloutPerimeter;position2=0;base=22;size=10;position=0.17;" vertex="1" parent="1">
          <mxGeometry x="530" y="190" width="100.11" height="40" as="geometry" />
        </mxCell>
        <mxCell id="2W3vLu9KmN9YGZMTVSio-54" value="Di chuyển xuống" style="shape=callout;whiteSpace=wrap;html=1;perimeter=calloutPerimeter;position2=0;base=22;size=10;position=0.17;" vertex="1" parent="1">
          <mxGeometry x="530" y="245" width="100.11" height="40" as="geometry" />
        </mxCell>
        <mxCell id="2W3vLu9KmN9YGZMTVSio-55" value="Cập nhật vị trí" style="shape=callout;whiteSpace=wrap;html=1;perimeter=calloutPerimeter;position2=0;base=22;size=10;position=0.17;" vertex="1" parent="1">
          <mxGeometry x="530" y="295" width="100.11" height="40" as="geometry" />
        </mxCell>
        <mxCell id="2W3vLu9KmN9YGZMTVSio-56" value="Di chuyển lên" style="shape=callout;whiteSpace=wrap;html=1;perimeter=calloutPerimeter;position2=0;base=22;size=10;position=0.17;" vertex="1" parent="1">
          <mxGeometry x="530" y="340" width="100.11" height="40" as="geometry" />
        </mxCell>
        <mxCell id="2W3vLu9KmN9YGZMTVSio-57" value="Cập nhật vị trí" style="shape=callout;whiteSpace=wrap;html=1;perimeter=calloutPerimeter;position2=0;base=22;size=10;position=0.17;" vertex="1" parent="1">
          <mxGeometry x="530" y="390" width="100.11" height="40" as="geometry" />
        </mxCell>
        <mxCell id="2W3vLu9KmN9YGZMTVSio-59" value="Reset thuộc tính" style="shape=callout;whiteSpace=wrap;html=1;perimeter=calloutPerimeter;position2=0;base=22;size=10;position=0.17;" vertex="1" parent="1">
          <mxGeometry x="530" y="450" width="100.11" height="40" as="geometry" />
        </mxCell>
        <mxCell id="2W3vLu9KmN9YGZMTVSio-60" value="button [Up]" style="shape=callout;whiteSpace=wrap;html=1;perimeter=calloutPerimeter;position2=1;base=18;size=20;position=0.59;" vertex="1" parent="1">
          <mxGeometry x="80" y="210" width="95" height="49.94" as="geometry" />
        </mxCell>
      </root>
    </mxGraphModel>
  </diagram>
</mxfile>
